<?xml version="1.0" encoding="UTF-8"?>
<svg width="22px" height="30px" viewBox="0 0 22 30" version="1.1" xmlns="http://www.w3.org/2000/svg" xmlns:xlink="http://www.w3.org/1999/xlink">
    <!-- Generator: Sketch 60.1 (88133) - https://sketch.com -->
    <title>Combined Shape</title>
    <desc>Created with Sketch.</desc>
    <g id="the-one" stroke="none" stroke-width="1" fill="none" fill-rule="evenodd">
        <g id="Artboard" transform="translate(-1288.000000, -28.000000)" fill="#000000">
            <g id="navbar" transform="translate(84.000000, 0.000000)">
                <g id="Group-2" transform="translate(1184.000000, 28.000000)">
                    <path d="M31,0 C37.0751322,0 42,4.71367296 42,10.5282832 C42,12.4484468 41.4629313,14.2485505 40.5247268,15.7984909 L40.5265676,15.7985078 L31.933196,29.4943669 C31.841358,29.6407355 31.7133446,29.7632593 31.5604179,29.851159 C31.0508848,30.1440301 30.3914926,29.9912268 30.0774939,29.5110542 L30.066804,29.4943669 L21.6352131,16.0563489 L21.6366024,16.0564438 C20.5988895,14.449738 20,12.5559504 20,10.5282832 C20,4.71367296 24.9248678,0 31,0 Z M31,5.52631579 C28.0749363,5.52631579 25.7037037,7.82380194 25.7037037,10.6578947 C25.7037037,13.4919875 28.0749363,15.7894737 31,15.7894737 C33.9250637,15.7894737 36.2962963,13.4919875 36.2962963,10.6578947 C36.2962963,7.82380194 33.9250637,5.52631579 31,5.52631579 Z" id="Combined-Shape"></path>
                </g>
            </g>
        </g>
    </g>
</svg>