<?xml version="1.0" encoding="UTF-8"?>
<svg width="54px" height="74px" viewBox="0 0 54 74" version="1.1" xmlns="http://www.w3.org/2000/svg" xmlns:xlink="http://www.w3.org/1999/xlink">
    <!-- Generator: Sketch 60.1 (88133) - https://sketch.com -->
    <title>logo</title>
    <desc>Created with Sketch.</desc>
    <g id="the-one" stroke="none" stroke-width="1" fill="none" fill-rule="evenodd">
        <g id="Artboard" transform="translate(-84.000000, -20.000000)">
            <g id="navbar" transform="translate(84.000000, 0.000000)">
                <g id="logo" transform="translate(0.000000, 21.000000)">
                    <path d="M51.1538462,7.10542736e-15 C52.3846154,1.42857143 53,2.61904762 53,3.57142857 C50.3164136,19.7360703 48.5204755,30.1426256 47.6121857,34.7910946 L47.5192138,35.2625383 C48.3664324,36.3783909 49.2702842,37.4813543 50.2307692,38.5714286 C49.2520853,38.7607573 48.1436962,38.5486179 46.9571715,38.0414235 L46.9612501,38.0192446 C44.2443028,51.0107327 41.3341425,61.9090797 38.2307692,70.7142857 C36.3846154,72.1428571 33.6153846,72.3809524 29.9230769,71.4285714 C26.2307692,69.5238095 23.1538462,60.2380952 20.6923077,43.5714286 C18.2675086,27.1535181 17.0370136,16.2805907 17.0008225,10.9526462 L17,3.57142857 C25.3229962,4.31455323 32.3970933,4.34897726 38.2222915,3.67470065 L38.2307692,3.57142857 L38.224295,3.67446871 C43.5964363,3.05245377 47.9062867,1.82763086 51.1538462,7.10542736e-15 Z" id="Combined-Shape" stroke="#6F0009" fill="#FFFFFF"></path>
                    <path d="M9.81996727,55 L15.3191489,55 C23.2624113,28.5784314 26.3175123,12.245098 24.4844517,6 C17.1522095,11.0441176 10.7364975,14.6470588 1.57119476,11.0441176 C-2.09492635,25.9362745 0.654664484,40.5882353 9.81996727,55 Z" id="Path-2" fill="#6F0009"></path>
                    <path d="M1.27846365,23 C3.19890261,21.6084618 6.07956104,20.2169236 8,20.2169236 C8,15.34654 -0.641975309,19.5211545 1.27846365,23 Z" id="Path-3" fill="#FFFFFF"></path>
                    <path d="M12,20.8066415 C14.842705,15.9143899 20.5281151,22.2044277 16.7378417,25 C16.7378417,23.6022138 14.842705,20.8066415 12,20.8066415 Z" id="Path-4" fill="#FFFFFF"></path>
                    <path d="" id="Path-5" stroke="#FF0000" stroke-width="3"></path>
                    <path d="M6,38.3057851 C8.4,37.3801653 11.4,37.6115702 15,39 C11.4,33.9090909 8.4,33.677686 6,38.3057851 Z" id="Path-6" fill="#FFFFFF"></path>
                    <path d="M21,36 C30.0450638,26.6316717 36.1056699,20.1516717 39.1818182,16.56 C46.0599805,8.52914504 49.5490972,2.87278749 51,0" id="Path-8" stroke="#6F0009"></path>
                    <path d="M37.8666667,3 C36.6222222,15.8320547 40.6666667,27.4759561 50,37.9317043 C46.2666667,38.6445963 40.6666667,33.6543528 36,28.6641093" id="Path-9" stroke="#6F0009" stroke-linecap="round"></path>
                    <path d="M24,35.6432706 C24,35.6432706 24,35.6432706 40.3588233,35.0004286 C40.911981,34.9786915 42.0269583,35.7891871 41.9995021,36.2067614 C39.8582475,68.772632 24,58.7858696 24,35.6432706 Z" id="Path-10" fill="#6F0009"></path>
                    <path d="M25,38.88 C33.2352941,39.36 38.2352941,38.4 40,36 C32.9411765,36.48 27.9411765,36.72 25,36.72 L25,38.88 Z" id="Path-11" fill="#FFFFFF"></path>
                    <path d="M26,17 C26,17 35,17 40,17 C33,19.25 26,17 26,17 Z" id="Path-12" stroke="#6F0009" fill="#FFFFFF"></path>
                    <path d="M36.9520277,15.7385771 C42.1129112,15.6781019 46.2218981,15.5629865 49.2789885,15.3932308 C44.8972086,17.0820262 40.7882216,17.1971416 36.9520277,15.7385771 Z" id="Path-12-Copy" stroke="#6F0009" fill="#FFFFFF" transform="translate(43.115508, 16.072855) scale(-1, 1) rotate(14.000000) translate(-43.115508, -16.072855) "></path>
                </g>
            </g>
        </g>
    </g>
</svg>