<?xml version="1.0" encoding="UTF-8"?>
<svg width="35px" height="32px" viewBox="0 0 35 32" version="1.1" xmlns="http://www.w3.org/2000/svg" xmlns:xlink="http://www.w3.org/1999/xlink">
    <!-- Generator: Sketch 60.1 (88133) - https://sketch.com -->
    <title>Path</title>
    <desc>Created with Sketch.</desc>
    <g id="the-one" stroke="none" stroke-width="1" fill="none" fill-rule="evenodd">
        <g id="Artboard" transform="translate(-1375.000000, -28.000000)" fill="#000000">
            <g id="navbar" transform="translate(84.000000, 0.000000)">
                <g id="Group" transform="translate(1291.000000, 28.000000)">
                    <path d="M5.97135391,4.21052632 L2.10526316,4.21052632 C0.942558421,4.21052632 0,3.26796789 0,2.10526316 C0,0.942558421 0.942558421,0 2.10526316,0 L5.05604547,0 C7.48365456,0 9.58889674,1.64938796 10.1837911,3.98262663 L10.2366067,4.21052632 L28.8790776,4.21052632 C32.2616177,4.21052632 35.0037082,6.95261683 35.0037082,10.3351569 C35.0037082,10.8251913 34.9448971,11.3134548 34.8285366,11.7894737 C33.7409765,16.2385694 29.7538945,19.3684211 25.1738028,19.3684211 L13.5369335,19.3684211 L14.0403731,21.8538579 L30.5845467,21.8538579 C31.5454149,21.8538579 32.333449,22.5938487 32.4098503,23.5350313 L32.4159212,23.6852325 L32.2092381,24.5710455 C33.8071616,25.0293046 34.9750729,26.4852753 34.9750729,28.2105263 C34.9750729,30.3033948 33.2564161,32 31.1363454,32 C29.0162747,32 27.2976179,30.3033948 27.2976179,28.2105263 C27.2976179,27.4316463 27.535656,26.7076496 27.9438349,26.1055625 L15.5617436,26.1055625 C15.9699225,26.7076496 16.2079606,27.4316463 16.2079606,28.2105263 C16.2079606,30.3033948 14.4893038,32 12.3692331,32 C10.2491624,32 8.53050559,30.3033948 8.53050559,28.2105263 C8.53050559,26.7988962 9.31239815,25.5675438 10.4719773,24.9154887 L9.38355615,19.3684211 L5.97135391,4.21052632 Z" id="Path"></path>
                </g>
            </g>
        </g>
    </g>
</svg>